<svg xmlns="http://www.w3.org/2000/svg" viewBox="0 0 200 200" width="200" height="200">
  <!-- Background Circle -->
  <circle cx="100" cy="100" r="95" fill="#4F46E5" opacity="0.1"/>

  <!-- Shopping Bag -->
  <path d="M 60 70 L 65 140 C 65 145 68 148 73 148 L 127 148 C 132 148 135 145 135 140 L 140 70 Z"
        fill="#4F46E5" stroke="#4F46E5" stroke-width="2"/>

  <!-- Bag Top -->
  <rect x="55" y="65" width="90" height="8" rx="2" fill="#4F46E5"/>

  <!-- Handle Left -->
  <path d="M 75 65 Q 75 45 90 40 Q 100 38 100 38"
        fill="none" stroke="#4F46E5" stroke-width="4" stroke-linecap="round"/>

  <!-- Handle Right -->
  <path d="M 125 65 Q 125 45 110 40 Q 100 38 100 38"
        fill="none" stroke="#4F46E5" stroke-width="4" stroke-linecap="round"/>

  <!-- YS Text Inside Bag -->
  <text x="100" y="110" font-family="Arial, sans-serif" font-size="36" font-weight="bold"
        fill="white" text-anchor="middle" dominant-baseline="middle">YS</text>

  <!-- Accent Line -->
  <path d="M 70 85 L 130 85" stroke="white" stroke-width="2" opacity="0.5" stroke-linecap="round"/>

  <!-- Shopping Cart Icon (small accent) -->
  <circle cx="115" cy="125" r="3" fill="white" opacity="0.7"/>
  <circle cx="125" cy="125" r="3" fill="white" opacity="0.7"/>
</svg>
